<svg width="45" height="45" viewBox="0 0 45 45" fill="none" xmlns="http://www.w3.org/2000/svg">
<path d="M22.5 0C10.0745 0 0 10.0745 0 22.5C0 32.4426 6.44625 40.8746 15.3877 43.8492C16.5125 44.0552 16.9231 43.3603 16.9231 42.767C16.9231 42.2314 16.9025 40.4572 16.8915 38.5785C10.6348 39.938 9.31228 35.9253 9.31228 35.9253C8.28782 33.327 6.81425 32.6349 6.81425 32.6349C4.76943 31.2396 6.96937 31.2671 6.96937 31.2671C9.22843 31.4236 10.4178 33.5852 10.4178 33.5852C12.4255 37.0239 15.6857 36.0297 16.9656 35.4529C17.1701 34.0027 17.7524 33.0084 18.3938 32.4481C13.3992 31.8796 8.145 29.9487 8.145 21.3272C8.145 18.869 9.02254 16.864 10.459 15.2888C10.2296 14.7175 9.4551 12.4283 10.6814 9.33152C10.6814 9.33152 12.5684 8.72728 16.8695 11.6387C18.663 11.1374 20.587 10.8902 22.5 10.882C24.4116 10.8902 26.3369 11.1401 28.1332 11.6414C32.4261 8.72728 34.3158 9.33425 34.3158 9.33425C35.5463 12.4338 34.7717 14.7203 34.541 15.2888C35.9829 16.864 36.8536 18.869 36.8536 21.3272C36.8536 29.9707 31.5912 31.8741 26.5787 32.4316C27.389 33.1293 28.1058 34.4971 28.1058 36.5955C28.1058 39.603 28.0756 42.0282 28.0756 42.7698C28.0756 43.3685 28.4848 44.0689 29.6246 43.8492C38.5593 40.8691 45 32.4371 45 22.5C45 10.0745 34.9255 0 22.5 0Z" fill="black"/>
</svg>
