<svg width="45" height="45" viewBox="0 0 45 45" fill="none" xmlns="http://www.w3.org/2000/svg">
<path d="M23.8688 21.5113V21.4502C23.8561 21.4708 23.8426 21.4915 23.8291 21.5113H23.8688Z" fill="black"/>
<path d="M39.1041 3.70435H5.67141C4.07122 3.70435 2.77344 4.97117 2.77344 6.53247V40.3565C2.77344 41.917 4.07122 43.1838 5.67141 43.1838H39.1041C40.7067 43.1838 42.0045 41.9162 42.0045 40.3565V6.53247C42.0045 4.97037 40.7059 3.70435 39.1041 3.70435ZM14.6646 36.7537H8.73925V18.9269H14.6646V36.7537ZM11.7023 16.4916H11.6626C9.67508 16.4916 8.38921 15.1224 8.38921 13.4119C8.38921 11.6633 9.71477 10.3321 11.7412 10.3321C13.7684 10.3321 15.0154 11.6633 15.0551 13.4119C15.0551 15.1224 13.7677 16.4916 11.7023 16.4916ZM36.0315 36.7537H30.1062V27.2144C30.1062 24.8189 29.2489 23.1837 27.105 23.1837C25.4683 23.1837 24.4936 24.2863 24.0642 25.3515C23.9078 25.7317 23.8697 26.2635 23.8697 26.7969V36.7529H17.9444C17.9444 36.7529 18.0221 20.5969 17.9444 18.9261H23.8697V21.4494C24.6571 20.235 26.0652 18.5054 29.2108 18.5054C33.1089 18.5054 36.0323 21.0541 36.0323 26.5302V36.7537H36.0315Z" fill="black"/>
</svg>
