<svg width="45" height="45" viewBox="0 0 45 45" fill="none" xmlns="http://www.w3.org/2000/svg">
<g clip-path="url(#clip0)">
<path fill-rule="evenodd" clip-rule="evenodd" d="M22.47 24.375C18.8081 24.375 -0.0581055 9.17063 -0.0581055 9.17063V7.5C-0.0581055 5.43 1.62189 3.75 3.69564 3.75H41.2444C43.32 3.75 45 5.43 45 7.5L44.97 9.375C44.97 9.375 26.3081 24.375 22.47 24.375ZM22.47 29.5313C26.4844 29.5313 44.97 15 44.97 15L45 37.5C45 39.57 43.32 41.25 41.2444 41.25H3.69564C1.62377 41.25 -0.0581055 39.57 -0.0581055 37.5L-0.0281055 15C-0.0299805 15 18.8081 29.5313 22.47 29.5313Z" fill="black"/>
</g>
<defs>
<clipPath id="clip0">
<rect width="45" height="45" fill="white"/>
</clipPath>
</defs>
</svg>
